<?xml version="1.0" encoding="iso-8859-1"?>
<!-- Generator: Adobe Illustrator 19.0.0, SVG Export Plug-In . SVG Version: 6.00 Build 0)  -->
<svg version="1.1" id="Layer_1" xmlns="http://www.w3.org/2000/svg" xmlns:xlink="http://www.w3.org/1999/xlink" x="0px" y="0px"
	 viewBox="0 0 512 512" style="enable-background:new 0 0 512 512;" xml:space="preserve">
<path style="fill:#6DC180;" d="M331.294,240.941H180.706c-66.259,0-120.471-54.212-120.471-120.471l0,0
	C60.235,54.212,114.447,0,180.706,0h150.588c66.259,0,120.471,54.212,120.471,120.471l0,0
	C451.765,186.729,397.553,240.941,331.294,240.941z"/>
<path style="fill:#5CA15D;" d="M331.294,0H256v240.941h75.294c66.259,0,120.471-54.212,120.471-120.471l0,0
	C451.765,54.212,397.553,0,331.294,0z"/>
<polygon style="fill:#A58868;" points="332.207,181.618 300.264,149.676 256,193.938 211.736,149.676 179.793,181.618 
	233.412,235.238 233.412,346.353 278.588,346.353 278.588,235.238 "/>
<polygon style="fill:#FFAF33;" points="406.588,512 105.412,512 90.353,406.588 421.647,406.588 "/>
<polygon style="fill:#FF9408;" points="256,406.588 256,512 406.588,512 421.647,406.588 "/>
<rect x="60.235" y="331.294" style="fill:#FFDB2D;" width="391.529" height="90.353"/>
<rect x="256" y="331.294" style="fill:#FFAF33;" width="195.765" height="90.353"/>
<g>
</g>
<g>
</g>
<g>
</g>
<g>
</g>
<g>
</g>
<g>
</g>
<g>
</g>
<g>
</g>
<g>
</g>
<g>
</g>
<g>
</g>
<g>
</g>
<g>
</g>
<g>
</g>
<g>
</g>
</svg>
